<svg width="60" height="60" viewBox="0 0 60 60" fill="none" xmlns="http://www.w3.org/2000/svg">
<path d="M38.5834 19.6436C43.0444 22.5898 45.988 27.6493 45.988 33.3959C45.988 42.4913 38.6146 49.8644 29.5192 49.8644C20.4238 49.8644 13.0508 42.4913 13.0508 33.3959C13.0508 28.1103 15.5407 23.4061 19.4116 20.3929" stroke="white" stroke-width="0.7" stroke-miterlimit="22.9256" stroke-linecap="round" stroke-linejoin="round"/>
<path d="M36.395 23.2959C37.5411 26.0847 38.2239 29.5898 38.2239 33.3963C38.2239 42.4917 34.3265 49.8647 29.519 49.8647C24.7115 49.8647 20.8145 42.4917 20.8145 33.3963C20.8145 30.1366 21.3151 27.0984 22.1783 24.5412" stroke="white" stroke-width="0.7" stroke-miterlimit="22.9256" stroke-linecap="round" stroke-linejoin="round"/>
<path d="M16.6621 43.6874C20.1152 42.3766 24.6078 41.584 29.52 41.584C34.4322 41.584 38.9249 42.3766 42.3779 43.6874" stroke="white" stroke-width="0.7" stroke-miterlimit="22.9256" stroke-linecap="round" stroke-linejoin="round"/>
<path d="M13.0508 33.3955H22.5032M26.0632 33.3955H45.988" stroke="white" stroke-width="0.7" stroke-miterlimit="22.9256" stroke-linecap="round" stroke-linejoin="round"/>
<path d="M29.5195 49.8646V30.6953" stroke="white" stroke-width="0.7" stroke-miterlimit="22.9256" stroke-linecap="round" stroke-linejoin="round"/>
<path d="M24.9258 14.4306C24.8847 14.1819 24.8633 13.9267 24.8633 13.666C24.8633 11.0943 26.9482 9.00977 29.5199 9.00977C32.0912 9.00977 34.1761 11.0943 34.1761 13.666C34.1761 16.2377 32.0912 18.3226 29.5199 18.3226C27.6732 18.3226 26.0773 17.2474 25.3247 15.6894" stroke="white" stroke-width="0.7" stroke-miterlimit="22.9256" stroke-linecap="round" stroke-linejoin="round"/>
<path fill-rule="evenodd" clip-rule="evenodd" d="M29.5192 5C34.3052 5 38.1851 8.87996 38.1851 13.666C38.1851 15.6727 37.5027 17.5201 36.3577 18.9891C33.6293 22.4887 29.7573 22.9181 29.7573 28.7768C26.1671 25.328 20.8535 18.9742 20.8535 13.666C20.8535 8.87996 24.7331 5 29.5192 5Z" stroke="white" stroke-width="0.7" stroke-miterlimit="22.9256" stroke-linecap="round" stroke-linejoin="round"/>
<path d="M11 54.8652H48.0383" stroke="white" stroke-width="0.7" stroke-miterlimit="22.9256" stroke-linecap="round" stroke-linejoin="round"/>
</svg>
