<svg width="60" height="60" viewBox="0 0 60 60" fill="none" xmlns="http://www.w3.org/2000/svg">
<path d="M8.11523 56.917H52.8854" stroke="white" stroke-width="0.7" stroke-miterlimit="22.9256" stroke-linecap="round" stroke-linejoin="round"/>
<path d="M23.9922 15.2381V8.16602H34.4155V10.8951" stroke="white" stroke-width="0.577259" stroke-miterlimit="22.9256" stroke-linecap="round" stroke-linejoin="round"/>
<path d="M29.2031 4.08398V7.27683" stroke="white" stroke-width="0.577259" stroke-miterlimit="22.9256" stroke-linecap="round" stroke-linejoin="round"/>
<path d="M41.198 22.0796H52.8856V29.2378V46.5738C52.8856 49.3478 50.0336 51.6184 46.5493 51.6184H34.8214M20.4805 46.5761V24.5438V20.58L37.9255 10.8945V48.2417" stroke="white" stroke-width="0.577259" stroke-miterlimit="22.9256" stroke-linecap="round" stroke-linejoin="round"/>
<path d="M44.327 28.2393H42.8906V32.1403H44.327V28.2393Z" stroke="white" stroke-width="0.577259" stroke-miterlimit="22.9256" stroke-linecap="round" stroke-linejoin="round"/>
<path d="M47.9168 28.2393H46.4805V32.1403H47.9168V28.2393Z" stroke="white" stroke-width="0.577259" stroke-miterlimit="22.9256" stroke-linecap="round" stroke-linejoin="round"/>
<path d="M44.327 37.1094H42.8906V41.0104H44.327V37.1094Z" stroke="white" stroke-width="0.577259" stroke-miterlimit="22.9256" stroke-linecap="round" stroke-linejoin="round"/>
<path d="M47.9168 37.1094H46.4805V41.0104H47.9168V37.1094Z" stroke="white" stroke-width="0.577259" stroke-miterlimit="22.9256" stroke-linecap="round" stroke-linejoin="round"/>
<path d="M27.8829 21.457H26.3477V25.6269H27.8829V21.457Z" stroke="white" stroke-width="0.577259" stroke-miterlimit="22.9256" stroke-linecap="round" stroke-linejoin="round"/>
<path d="M31.7228 21.457H30.1875V25.6269H31.7228V21.457Z" stroke="white" stroke-width="0.577259" stroke-miterlimit="22.9256" stroke-linecap="round" stroke-linejoin="round"/>
<path d="M27.8829 31.2422H26.3477V35.4121H27.8829V31.2422Z" stroke="white" stroke-width="0.577259" stroke-miterlimit="22.9256" stroke-linecap="round" stroke-linejoin="round"/>
<path d="M31.7228 31.2422H30.1875V35.4121H31.7228V31.2422Z" stroke="white" stroke-width="0.577259" stroke-miterlimit="22.9256" stroke-linecap="round" stroke-linejoin="round"/>
<path d="M27.8829 41.0264H26.3477V45.1963H27.8829V41.0264Z" stroke="white" stroke-width="0.577259" stroke-miterlimit="22.9256" stroke-linecap="round" stroke-linejoin="round"/>
<path d="M31.7228 41.0264H30.1875V45.1963H31.7228V41.0264Z" stroke="white" stroke-width="0.577259" stroke-miterlimit="22.9256" stroke-linecap="round" stroke-linejoin="round"/>
<path d="M13.4824 31.9824V51.6184" stroke="white" stroke-width="0.577259" stroke-miterlimit="22.9256" stroke-linecap="round" stroke-linejoin="round"/>
<path d="M13.4824 36.9403L14.7925 36.0469" stroke="white" stroke-width="0.577259" stroke-miterlimit="22.9256" stroke-linecap="round" stroke-linejoin="round"/>
<path d="M13.4822 39.6288L12.1719 38.7354" stroke="white" stroke-width="0.577259" stroke-miterlimit="22.9256" stroke-linecap="round" stroke-linejoin="round"/>
<path d="M31.2333 51.6193H17.0913C16.9773 51.3542 16.9141 51.063 16.9141 50.7572C16.9141 49.5283 17.9331 48.5323 19.1899 48.5323C19.2454 48.5323 19.3006 48.5344 19.3553 48.5382L19.3547 48.5C19.3547 47.2712 20.3734 46.2748 21.6302 46.2748C22.0297 46.2748 22.4049 46.3755 22.7313 46.5522C23.1329 45.9213 23.8484 45.501 24.6646 45.501C25.3203 45.501 25.9115 45.7723 26.3267 46.2065C26.6694 46.0042 27.0712 45.8878 27.5007 45.8878C28.646 45.8878 29.5935 46.7151 29.7527 47.7918C30.5014 47.8155 31.159 48.1927 31.5556 48.7585" stroke="white" stroke-width="0.577259" stroke-miterlimit="22.9256" stroke-linecap="round" stroke-linejoin="round"/>
<path fill-rule="evenodd" clip-rule="evenodd" d="M36.8663 49.5896C37.5144 49.6101 38.0331 50.1302 38.0331 50.7688C38.0331 51.1029 37.8834 51.4044 37.6515 51.6192H30.1525C30.0919 51.4785 30.0586 51.3242 30.0586 51.1621C30.0586 50.5104 30.5989 49.9823 31.2652 49.9823C31.2946 49.9823 31.3239 49.9835 31.353 49.9854L31.3526 49.9651C31.3526 49.3136 31.8929 48.7853 32.5594 48.7853C32.7711 48.7853 32.9701 48.8386 33.1431 48.9323C33.356 48.5978 33.7355 48.375 34.1683 48.375C34.516 48.375 34.8294 48.5189 35.0497 48.7491C35.2314 48.6418 35.4443 48.58 35.6722 48.58C36.2795 48.58 36.782 49.0187 36.8663 49.5896Z" stroke="white" stroke-width="0.577259" stroke-miterlimit="22.9256" stroke-linecap="round" stroke-linejoin="round"/>
<path d="M10.7132 39.4792C11.695 39.4792 12.4909 38.701 12.4909 37.7411C12.4909 36.7811 11.695 36.0029 10.7132 36.0029C9.73143 36.0029 8.93555 36.7811 8.93555 37.7411C8.93555 38.701 9.73143 39.4792 10.7132 39.4792Z" stroke="white" stroke-width="0.577259" stroke-miterlimit="22.9256" stroke-linecap="round" stroke-linejoin="round"/>
<path d="M13.4824 35.3555C15.3874 35.3555 16.9317 33.8456 16.9317 31.9829C16.9317 30.1203 15.3874 28.6104 13.4824 28.6104C11.5775 28.6104 10.0332 30.1203 10.0332 31.9829C10.0332 33.8456 11.5775 35.3555 13.4824 35.3555Z" stroke="white" stroke-width="0.577259" stroke-miterlimit="22.9256" stroke-linecap="round" stroke-linejoin="round"/>
<path d="M16.6339 33.3555C17.4315 33.5267 18.0282 34.2216 18.0282 35.053C18.0282 36.013 17.2324 36.7912 16.2508 36.7912C15.3236 36.7912 14.5627 36.0976 14.4805 35.2123" stroke="white" stroke-width="0.577259" stroke-miterlimit="22.9256" stroke-linecap="round" stroke-linejoin="round"/>
<path d="M9.83984 42.6152V51.6191" stroke="white" stroke-width="0.577259" stroke-miterlimit="22.9256" stroke-linecap="round" stroke-linejoin="round"/>
<path d="M9.83917 45.6236L8.71289 44.8555" stroke="white" stroke-width="0.577259" stroke-miterlimit="22.9256" stroke-linecap="round" stroke-linejoin="round"/>
<path d="M9.83995 43.487C10.7925 43.487 11.5647 42.732 11.5647 41.8007C11.5647 40.8693 10.7925 40.1143 9.83995 40.1143C8.88742 40.1143 8.11523 40.8693 8.11523 41.8007C8.11523 42.732 8.88742 43.487 9.83995 43.487Z" stroke="white" stroke-width="0.577259" stroke-miterlimit="22.9256" stroke-linecap="round" stroke-linejoin="round"/>
<path d="M9.83984 46.7659L11.6949 45.501" stroke="white" stroke-width="0.577259" stroke-miterlimit="22.9256" stroke-linecap="round" stroke-linejoin="round"/>
</svg>
